<?xml version="1.0" standalone="no"?>
<!DOCTYPE svg PUBLIC "-//W3C//DTD SVG 20010904//EN"
 "http://www.w3.org/TR/2001/REC-SVG-20010904/DTD/svg10.dtd">
<svg version="1.0" xmlns="http://www.w3.org/2000/svg"
 width="728.000000pt" height="269.000000pt" viewBox="0 0 728.000000 269.000000"
 preserveAspectRatio="xMidYMid meet">

<g transform="translate(0.000000,269.000000) scale(0.100000,-0.100000)"
fill="#000000" stroke="none">
<path d="M1124 2511 c-55 -33 -95 -105 -143 -251 -63 -196 -176 -700 -257
-1155 -93 -516 -146 -746 -189 -811 -19 -29 -49 -38 -76 -23 l-23 12 27 14
c21 10 27 21 27 46 0 39 -15 57 -48 57 -40 0 -62 -18 -62 -51 0 -65 54 -129
110 -129 47 0 106 49 148 122 78 137 222 750 352 1498 47 272 99 494 137 580
28 65 53 81 93 60 l22 -12 -22 -11 c-54 -28 -40 -100 20 -105 57 -6 76 43 44
111 -30 64 -100 84 -160 48z"/>
<path d="M4953 2509 c-72 -46 -125 -169 -197 -455 -78 -310 -137 -597 -221
-1064 -92 -515 -144 -705 -201 -727 -8 -3 -27 0 -42 7 l-27 12 26 14 c67 34
20 132 -48 101 -49 -22 -41 -99 14 -147 31 -28 42 -31 76 -27 67 9 135 90 177
213 79 227 211 817 305 1369 56 330 106 540 148 624 29 57 47 69 84 52 l28
-13 -28 -14 c-53 -28 -32 -106 29 -106 74 0 70 128 -6 167 -40 21 -79 19 -117
-6z"/>
<path d="M5970 1833 c-30 -3 -58 -10 -62 -16 -14 -22 -8 -37 13 -37 11 0 29
-4 39 -10 19 -10 19 -10 -31 -203 l-10 -37 -28 21 c-80 59 -224 -15 -287 -146
-29 -62 -40 -150 -25 -197 32 -98 152 -131 236 -64 l29 23 20 -24 c29 -33 75
-44 115 -27 24 10 38 27 57 69 26 57 28 85 7 92 -12 4 -17 -3 -44 -75 -24 -67
-69 -79 -69 -19 0 17 34 167 75 334 41 167 75 308 75 313 0 6 -12 9 -27 8 -16
-1 -53 -3 -83 -5z m-86 -342 c18 -32 18 -33 -8 -142 -30 -127 -52 -164 -113
-191 -41 -18 -46 -18 -68 -4 -45 29 -44 94 1 236 43 139 136 188 188 101z"/>
<path d="M2677 1573 c-9 -2 -24 -17 -32 -33 -13 -26 -13 -30 6 -54 36 -46 42
-80 25 -141 -23 -78 -88 -145 -140 -145 -79 0 -105 36 -75 104 11 26 19 61 17
79 -2 27 -8 33 -31 35 -23 3 -30 -2 -42 -32 -8 -19 -15 -49 -15 -65 0 -70 -50
-121 -121 -121 -55 0 -79 32 -79 106 0 63 19 114 71 196 17 26 28 52 24 58
-35 57 -132 -117 -142 -256 -7 -91 1 -135 32 -168 20 -22 33 -26 79 -26 46 0
61 5 99 34 l44 33 24 -29 c28 -35 78 -48 132 -35 45 11 99 69 133 143 28 60
64 194 64 239 0 30 -33 87 -48 84 -4 -1 -15 -3 -25 -6z"/>
<path d="M6637 1573 c-9 -2 -24 -17 -32 -32 -13 -26 -12 -31 13 -66 34 -47 34
-103 1 -169 -32 -66 -80 -106 -125 -106 -78 0 -103 37 -73 106 11 26 19 62 17
78 -2 25 -8 32 -30 34 -33 4 -45 -15 -61 -105 -11 -59 -16 -70 -46 -90 -45
-31 -100 -31 -129 0 -17 18 -22 36 -22 79 0 68 17 119 65 191 37 56 39 77 7
77 -41 0 -111 -157 -119 -266 -7 -91 1 -135 32 -168 20 -22 33 -26 79 -26 46
0 61 5 99 34 l44 33 24 -29 c70 -86 199 -34 265 108 28 60 64 194 64 239 0 30
-33 87 -48 84 -4 -1 -15 -3 -25 -6z"/>
<path d="M3122 1478 l3 -23 335 3 c184 2 336 5 338 7 3 2 2 11 -1 20 -6 13
-49 15 -342 15 l-336 0 3 -22z"/>
<path d="M3122 1288 c-8 -8 -9 -15 -1 -25 17 -19 661 -19 678 0 27 33 -6 37
-339 37 -237 0 -329 -3 -338 -12z"/>
<path d="M1091 692 c-60 -30 -94 -97 -65 -126 14 -15 19 -15 38 -3 27 19 33
47 11 63 -16 12 -14 15 16 34 43 26 93 21 128 -15 23 -23 26 -33 25 -95 0 -38
-3 -73 -7 -76 -4 -4 -18 5 -31 19 -55 60 -173 24 -235 -70 -39 -58 -45 -81
-38 -141 4 -37 12 -53 41 -79 31 -29 43 -33 89 -33 93 0 166 66 219 198 17 44
23 77 23 143 0 79 -2 89 -30 129 -47 67 -116 87 -184 52z m103 -225 c37 -44
-2 -206 -60 -243 -38 -25 -97 -29 -118 -8 -41 40 9 233 66 262 54 26 82 23
112 -11z"/>
<path d="M1495 687 c-94 -38 -136 -89 -137 -165 0 -54 15 -91 83 -210 l41 -73
-43 3 c-40 3 -45 6 -54 35 -5 18 -15 33 -22 33 -16 0 -16 -14 -2 -80 l11 -50
69 0 69 0 0 28 c0 16 -14 77 -30 137 -53 187 -50 236 16 295 59 52 145 39 191
-29 32 -48 30 -123 -7 -252 -16 -57 -30 -121 -30 -141 l0 -38 69 0 68 0 7 43
c4 23 9 52 13 64 4 16 1 23 -10 23 -8 0 -18 -12 -22 -27 -3 -15 -12 -31 -18
-35 -14 -9 -77 -11 -77 -2 0 3 22 43 48 87 67 114 75 139 70 198 -9 95 -90
159 -205 165 -39 2 -81 -2 -98 -9z"/>
<path d="M4901 684 c-65 -24 -118 -82 -126 -138 -9 -56 4 -97 66 -207 27 -47
49 -88 49 -92 0 -9 -62 -9 -76 1 -7 4 -14 18 -15 32 -2 14 -11 26 -20 28 -13
2 -14 -5 -5 -63 l9 -66 71 3 71 3 -2 40 c-1 22 -13 76 -28 120 -52 160 -43
262 27 305 74 45 163 15 193 -64 21 -56 17 -104 -20 -231 -14 -49 -29 -109
-32 -133 l-6 -43 74 3 73 3 11 63 c10 56 10 62 -4 60 -9 -2 -17 -12 -19 -23
-2 -11 -9 -26 -14 -32 -13 -16 -78 -17 -78 -2 0 6 22 48 50 95 61 103 76 155
61 212 -12 45 -55 93 -104 119 -45 23 -152 26 -206 7z"/>
</g>
</svg>
