<?xml version="1.0" standalone="no"?>
<!DOCTYPE svg PUBLIC "-//W3C//DTD SVG 20010904//EN"
 "http://www.w3.org/TR/2001/REC-SVG-20010904/DTD/svg10.dtd">
<svg version="1.0" xmlns="http://www.w3.org/2000/svg"
 width="320pt" height="320pt" viewBox="0 0 320 270"
 preserveAspectRatio="xMidYMid meet">

<g transform="translate(0.000000,269.000000) scale(0.100000,-0.100000)"
fill="#000000" stroke="none">
<!-- Integral sign -->
<path d="M1124 2511 c-55 -33 -95 -105 -143 -251 -63 -196 -176 -700 -257
-1155 -93 -516 -146 -746 -189 -811 -19 -29 -49 -38 -76 -23 l-23 12 27 14
c21 10 27 21 27 46 0 39 -15 57 -48 57 -40 0 -62 -18 -62 -51 0 -65 54 -129
110 -129 47 0 106 49 148 122 78 137 222 750 352 1498 47 272 99 494 137 580
28 65 53 81 93 60 l22 -12 -22 -11 c-54 -28 -40 -100 20 -105 57 -6 76 43 44
111 -30 64 -100 84 -160 48z"/>
<!-- omega -->
<path d="M2677 1573 c-9 -2 -24 -17 -32 -33 -13 -26 -13 -30 6 -54 36 -46 42
-80 25 -141 -23 -78 -88 -145 -140 -145 -79 0 -105 36 -75 104 11 26 19 61 17
79 -2 27 -8 33 -31 35 -23 3 -30 -2 -42 -32 -8 -19 -15 -49 -15 -65 0 -70 -50
-121 -121 -121 -55 0 -79 32 -79 106 0 63 19 114 71 196 17 26 28 52 24 58
-35 57 -132 -117 -142 -256 -7 -91 1 -135 32 -168 20 -22 33 -26 79 -26 46 0
61 5 99 34 l44 33 24 -29 c28 -35 78 -48 132 -35 45 11 99 69 133 143 28 60
64 194 64 239 0 30 -33 87 -48 84 -4 -1 -15 -3 -25 -6z"/>
<!-- partial -->
<path d="M1091 692 c-60 -30 -94 -97 -65 -126 14 -15 19 -15 38 -3 27 19 33
47 11 63 -16 12 -14 15 16 34 43 26 93 21 128 -15 23 -23 26 -33 25 -95 0 -38
-3 -73 -7 -76 -4 -4 -18 5 -31 19 -55 60 -173 24 -235 -70 -39 -58 -45 -81
-38 -141 4 -37 12 -53 41 -79 31 -29 43 -33 89 -33 93 0 166 66 219 198 17 44
23 77 23 143 0 79 -2 89 -30 129 -47 67 -116 87 -184 52z m103 -225 c37 -44
-2 -206 -60 -243 -38 -25 -97 -29 -118 -8 -41 40 9 233 66 262 54 26 82 23
112 -11z"/>
<!-- Omega -->
<path d="M1495 687 c-94 -38 -136 -89 -137 -165 0 -54 15 -91 83 -210 l41 -73
-43 3 c-40 3 -45 6 -54 35 -5 18 -15 33 -22 33 -16 0 -16 -14 -2 -80 l11 -50
69 0 69 0 0 28 c0 16 -14 77 -30 137 -53 187 -50 236 16 295 59 52 145 39 191
-29 32 -48 30 -123 -7 -252 -16 -57 -30 -121 -30 -141 l0 -38 69 0 68 0 7 43
c4 23 9 52 13 64 4 16 1 23 -10 23 -8 0 -18 -12 -22 -27 -3 -15 -12 -31 -18
-35 -14 -9 -77 -11 -77 -2 0 3 22 43 48 87 67 114 75 139 70 198 -9 95 -90
159 -205 165 -39 2 -81 -2 -98 -9z"/>
</g>
</svg>
